<svg xmlns="http://www.w3.org/2000/svg" viewBox="0 0 64 64" width="64" height="64">
  <defs>
    <linearGradient id="bg" x1="0%" y1="0%" x2="100%" y2="100%">
      <stop offset="0%" style="stop-color:#032D60;stop-opacity:1"/>
      <stop offset="100%" style="stop-color:#0176D3;stop-opacity:1"/>
    </linearGradient>
  </defs>
  <!-- Background -->
  <rect width="64" height="64" rx="10" ry="10" fill="url(#bg)"/>
  <!-- Salesforce Cloud Shape -->
  <path d="M27 18c-3.5 0-6.5 2.2-7.6 5.3C17.2 23.8 15 26.3 15 29.3c0 3.6 2.9 6.5 6.5 6.5h0.3c1 2.4 3.4 4 6.2 4 2.4 0 4.5-1.3 5.7-3.2 0.9 0.5 1.9 0.7 3 0.7 3.5 0 6.3-2.8 6.3-6.3 0-0.4 0-0.8-0.1-1.2C44.8 28.8 46 26.6 46 24c0-3.9-3.1-7-7-7-1.5 0-2.9 0.5-4 1.3C33.5 16.3 30.5 15 27 15v0c0 1 0 2 0 3z"
        fill="#FFFFFF" fill-opacity="0.95"/>
  <!-- SPIFF Text -->
  <text x="32" y="51" text-anchor="middle" font-family="Salesforce Sans,Arial,Helvetica,sans-serif" font-weight="700" font-size="11" fill="#FFFFFF" letter-spacing="1.5">SPIFF</text>
  <!-- Accent bar -->
  <rect x="18" y="55" width="28" height="1.5" rx="0.75" fill="#1B96FF" fill-opacity="0.8"/>
</svg>
